HIERARCHY
ROOT RootJoint
{
    OFFSET   0.000000   0.000000   0.000000
    CHANNELS 6 Xposition Yposition Zposition Xrotation Yrotation Zrotation
    JOINT pelvis_lowerback
    {
        OFFSET   0.000000   0.093605   0.000000
        CHANNELS 3 Xrotation Yrotation Zrotation
        JOINT lowerback_torso
        {
            OFFSET   0.000000   0.100000   0.000000
            CHANNELS 3 Xrotation Yrotation Zrotation
            JOINT torso_head
            {
                OFFSET   0.000000   0.282350   0.000000
                CHANNELS 3 Xrotation Yrotation Zrotation
                End Site
                {
                    OFFSET   0.000000   0.192650   0.000000
                }
            }
            JOINT rTorso_Clavicle
            {
                OFFSET  -0.001000   0.157500   0.000000
                CHANNELS 3 Xrotation Yrotation Zrotation
                JOINT rShoulder
                {
                    OFFSET  -0.117647   0.000000   0.000000
                    CHANNELS 3 Xrotation Yrotation Zrotation
                    JOINT rElbow
                    {
                        OFFSET  -0.245000   0.000000   0.000000
                        CHANNELS 3 Xrotation Yrotation Zrotation
                        JOINT rWrist
                        {
                            OFFSET  -0.240000   0.000000   0.000000
                            CHANNELS 3 Xrotation Yrotation Zrotation
                            End Site
                            {
                                OFFSET  -0.116353  -0.002500   0.000000
                            }
                        }
                    }
                }
            }
            JOINT lTorso_Clavicle
            {
                OFFSET   0.001000   0.157500   0.000000
                CHANNELS 3 Xrotation Yrotation Zrotation
                JOINT lShoulder
                {
                    OFFSET   0.117647   0.000000   0.000000
                    CHANNELS 3 Xrotation Yrotation Zrotation
                    JOINT lElbow
                    {
                        OFFSET   0.245000   0.000000   0.000000
                        CHANNELS 3 Xrotation Yrotation Zrotation
                        JOINT lWrist
                        {
                            OFFSET   0.240000   0.000000   0.000000
                            CHANNELS 3 Xrotation Yrotation Zrotation
                            End Site
                            {
                                OFFSET   0.116353  -0.002500   0.000000
                            }
                        }
                    }
                }
            }
        }
    }
    JOINT rHip
    {
        OFFSET  -0.100000  -0.051395   0.000000
        CHANNELS 3 Xrotation Yrotation Zrotation
        JOINT rKnee
        {
            OFFSET   0.000000  -0.410000   0.000000
            CHANNELS 3 Xrotation Yrotation Zrotation
            JOINT rAnkle
            {
                OFFSET   0.000000  -0.390000   0.000000
                CHANNELS 3 Xrotation Yrotation Zrotation
                JOINT rToeJoint
                {
                    OFFSET   0.000000  -0.050000   0.130000
                    CHANNELS 3 Xrotation Yrotation Zrotation
                    End Site
                    {
                        OFFSET  -0.010000   0.002000   0.060000
                    }
                }
            }
        }
    }
    JOINT lHip
    {
        OFFSET   0.100000  -0.051395   0.000000
        CHANNELS 3 Xrotation Yrotation Zrotation
        JOINT lKnee
        {
            OFFSET   0.000000  -0.410000   0.000000
            CHANNELS 3 Xrotation Yrotation Zrotation
            JOINT lAnkle
            {
                OFFSET   0.000000  -0.390000   0.000000
                CHANNELS 3 Xrotation Yrotation Zrotation
                JOINT lToeJoint
                {
                    OFFSET   0.000000  -0.050000   0.130000
                    CHANNELS 3 Xrotation Yrotation Zrotation
                    End Site
                    {
                        OFFSET   0.010000   0.002000   0.060000
                    }
                }
            }
        }
    }
}
MOTION
Frames: 8
Frame Time:   0.008333
 -2.400379   0.813118   5.391330   5.122456 -15.305001   5.528556  25.249323  -5.715942  -1.160844   1.994718  -5.377859  -0.245910  -7.077363  -6.120886  -2.229612   4.199360 -11.687423   6.315077   0.225600 -16.919540  41.522585   0.075840  59.009615  -0.024305  -8.059712   2.638854 -10.707166   2.788678   1.339154   1.883933 -10.411323   3.300277 -33.686622  -0.065496 -68.676601  -0.048243  -7.485454  -6.585523  16.710430 -51.904046 -10.037077  -2.859447  44.098736   0.043137   0.064018  -1.354826 -12.810676   2.603407   3.624766  -0.017363  -0.023924 -21.275569   3.716008   5.367919  97.630405  -0.125572  -0.031392 -11.250765  -0.134318   2.873176  -8.433921  -0.056550  -0.026665
 -2.403303   0.808381   5.409298   4.486081 -16.388169   5.765408  24.985387  -5.635864  -1.470599   2.264039  -4.976814  -0.377569  -7.271085  -5.955303  -2.133387   4.110320 -10.751470   6.884272  -0.287804 -15.830326  41.579294   0.069469  59.343446  -0.024538  -8.231902   2.357920 -10.826100   3.151049   1.021472   0.937496  -9.755115   3.065266 -34.436823  -0.063651 -68.244102  -0.045883  -7.667926  -6.271312  16.567492 -50.693891 -10.192066  -2.034825  44.890419   0.028926   0.046322  -2.015215 -12.251473   1.873790   3.999838  -0.014048  -0.019532 -22.613190   3.462792   5.321317  99.513158  -0.120691  -0.020939 -12.421069   0.369527   3.277345  -7.970798  -0.051925  -0.020304
 -2.406314   0.803071   5.427016   3.829250 -17.438677   5.949770  24.792648  -5.537019  -1.758195   2.506803  -4.572958  -0.505520  -7.457582  -5.798053  -2.040229   3.922261  -9.723138   7.448270  -0.836700 -14.706372  41.665059   0.064381  59.672583  -0.024730  -8.393805   2.090599 -10.821884   3.456758   0.603688   0.003354  -9.174875   2.773105 -35.175389  -0.061152 -67.848390  -0.043236  -7.839300  -5.984568  16.397579 -49.408880 -10.282288  -1.183150  45.918985   0.015906   0.031939  -2.621928 -11.718842   1.196384   4.294469  -0.011214  -0.015758 -24.106658   3.148865   5.367677 101.114329  -0.113323  -0.012084 -13.532377   0.833495   3.666658  -7.605823  -0.046713  -0.015175
 -2.407728   0.800280   5.442315   3.317354 -19.271114   5.625140  25.107949  -5.079049  -1.703571   2.750953  -3.889828  -0.597265  -7.691565  -5.636667  -1.963338   3.485902  -8.391135   7.979209  -1.546310 -13.427455  41.748989   0.062367  60.031977  -0.026731  -8.509805   2.048443 -10.713292   3.683616   0.073178  -1.005617  -8.680947   2.435042 -35.937685  -0.062973 -67.480667  -0.045711  -8.004075  -5.734168  16.338653 -48.816293 -10.062755  -0.173730  48.111072   0.007581   0.008621  -5.125161 -11.658359  -0.610623   3.594164  -0.017243  -0.007118 -25.852250   2.819308   5.795985 102.364725  -0.109715  -0.009667 -14.574063   1.262133   4.041307  -7.264884  -0.043226  -0.012654
 -2.408631   0.798634   5.456753   2.777482 -21.326019   5.206911  25.521135  -4.632676  -1.728350   3.128685  -3.185048  -0.668822  -7.854087  -5.490807  -1.875417   2.992339  -7.022196   8.518979  -2.253979 -12.135846  41.893595   0.060945  60.409717  -0.028210  -8.580324   2.206607 -10.360502   3.890480  -0.471660  -1.950945  -8.221338   2.079277 -36.663094  -0.065019 -67.139977  -0.048913  -8.161894  -5.487691  16.124180 -48.144457 -10.016078   0.783984  50.018187  -0.000332  -0.013683  -6.635228 -11.247019  -1.712019   2.080364  -0.024571   0.005658 -27.584174   2.408969   6.170246 103.414652  -0.106090  -0.009192 -15.554335   1.658144   4.403492  -6.957940  -0.040185  -0.011274
 -2.409232   0.797557   5.470861   2.227564 -23.493441   4.786433  25.924931  -4.224618  -1.842965   3.544764  -2.521795  -0.773887  -7.977247  -5.357639  -1.795462   2.511312  -5.722070   9.056644  -2.914739 -10.906751  42.075181   0.058396  60.778875  -0.027940  -8.631231   2.451303  -9.877170   4.083949  -0.991832  -2.833018  -7.788635   1.731515 -37.344976  -0.065880 -66.823601  -0.051160  -8.311765  -5.245723  15.801599 -47.384561 -10.017686   1.669119  51.661480  -0.007342  -0.031340  -7.779682 -10.777213  -2.567872   0.486484  -0.028366   0.017911 -29.275880   1.987901   6.463951 104.358370  -0.102309  -0.009444 -16.474853   2.022432   4.749493  -6.683329  -0.037210  -0.010422
 -2.409609   0.796795   5.484859   1.670453 -25.730633   4.363698  26.291962  -3.859739  -2.016948   3.955444  -1.915092  -0.913153  -8.082415  -5.234560  -1.725640   2.064789  -4.522536   9.580058  -3.519897  -9.765695  42.273056   0.054390  61.126743  -0.025888  -8.677725   2.709855  -9.359218   4.265302  -1.476065  -3.661001  -7.381068   1.402213 -37.985253  -0.065487 -66.528200  -0.052264  -8.454868  -5.007893  15.436151 -46.567438 -10.019940   2.483303  53.122326  -0.013128  -0.044621  -8.732777 -10.303650  -3.294028  -1.055056  -0.030115   0.028593 -30.907794   1.576980   6.704953 105.235587  -0.098505  -0.010010 -17.338085   2.357046   5.078104  -6.437738  -0.034246  -0.009832
 -2.409955   0.795322   5.498762   1.286254 -27.593551   4.192567  26.397858  -3.644441  -2.320035   4.246432  -1.487998  -1.013751  -8.133495  -4.932471  -1.652931   1.629732  -3.287549  10.241929  -4.466733  -8.448430  42.145186   0.044423  61.171555  -0.021194  -8.768871   2.376452  -9.015169   4.227599  -2.109416  -4.631685  -7.437951   0.964737 -38.230182  -0.057479 -66.364017  -0.046216  -8.706068  -4.372744  14.980928 -46.123918  -9.727529   2.879411  55.174626  -0.016425  -0.058413 -10.419251  -9.507272  -4.010961  -0.822831  -0.022535   0.021959 -32.776853   0.616630   6.653622 105.284626  -0.079909  -0.007673 -18.201619   2.435302   4.981679  -6.170935  -0.031835  -0.009753
